<?xml version="1.0" encoding="utf-8"?>
<!-- Generator: Adobe Illustrator 19.0.0, SVG Export Plug-In . SVG Version: 6.00 Build 0)  -->
<svg version="1.1" id="Layer_1" xmlns="http://www.w3.org/2000/svg" xmlns:xlink="http://www.w3.org/1999/xlink" x="0px" y="0px"
	 viewBox="0 0 595.3 841.9" style="enable-background:new 0 0 595.3 841.9;" xml:space="preserve">
<style type="text/css">
	.st0{fill:none;}
	.st1{fill:url(#SVGID_1_);}
	.st2{fill:url(#SVGID_2_);}
	.st3{fill:#0F253C;}
	.st4{fill:url(#SVGID_3_);}
	.st5{fill:url(#SVGID_4_);}
	.st6{opacity:0.2;fill:url(#SVGID_5_);enable-background:new    ;}
	.st7{fill:url(#SVGID_6_);}
	.st8{fill:url(#SVGID_7_);}
	.st9{fill:url(#SVGID_8_);}
	.st10{fill:url(#SVGID_9_);}
	.st11{fill:url(#SVGID_10_);}
	.st12{fill:url(#SVGID_11_);}
	.st13{fill:#FDFDF1;}
	.st14{fill:#F4CB97;}
	.st15{fill:url(#SVGID_12_);fill-opacity:0.21;}
	.st16{fill:#151C2D;}
	.st17{opacity:7.000000e-002;}
	.st18{fill:url(#SVGID_13_);}
	.st19{fill:url(#SVGID_14_);}
	.st20{fill:url(#SVGID_15_);}
	.st21{fill:url(#SVGID_16_);}
	.st22{fill:url(#SVGID_17_);}
	.st23{fill:url(#SVGID_18_);}
	.st24{fill:url(#SVGID_19_);}
	.st25{fill:#463950;}
	.st26{fill:#2B293C;}
	.st27{opacity:0.38;}
	.st28{fill:url(#SVGID_20_);}
	.st29{fill:url(#SVGID_21_);}
	.st30{fill:#CCBFAF;}
	.st31{fill:#FFFFFF;}
	.st32{fill:#E72F24;}
	.st33{fill:url(#SVGID_22_);}
	.st34{fill:#352A3E;}
	.st35{opacity:0.47;}
	.st36{fill:url(#SVGID_23_);}
	.st37{opacity:0.22;}
	.st38{opacity:0.32;fill:url(#SVGID_24_);enable-background:new    ;}
</style>
<g id="Layer_1_1_">
	<g id="Layer_3">
	</g>
	<polygon class="st0" points="418.3,-587.8 428,-587.3 426.1,-593.9 401.4,-595.1 	"/>
	<path class="st0" d="M369.8-596.5h1.7l-1.9-0.1C369.8-596.5,369.8-596.5,369.8-596.5z"/>
	
		<linearGradient id="SVGID_1_" gradientUnits="userSpaceOnUse" x1="429.4655" y1="-588.8838" x2="430.9532" y2="-616.8185" gradientTransform="matrix(1 0 0 1 0 -4.003906e-002)">
		<stop  offset="0" style="stop-color:#0071B9"/>
		<stop  offset="1" style="stop-color:#E3FFFF"/>
	</linearGradient>
	<polygon class="st1" points="433,-587.1 427.7,-593.8 426.1,-593.9 428,-587.3 	"/>
	
		<linearGradient id="SVGID_2_" gradientUnits="userSpaceOnUse" x1="424.2339" y1="-589.1624" x2="425.7217" y2="-617.0969" gradientTransform="matrix(1 0 0 1 0 -4.003906e-002)">
		<stop  offset="0" style="stop-color:#0071B9"/>
		<stop  offset="1" style="stop-color:#E3FFFF"/>
	</linearGradient>
	<polygon class="st2" points="424.7,-585 425.4,-582 429.7,-581.8 428,-587.3 418.3,-587.8 	"/>
	<polygon class="st3" points="371.4,-596.5 401.4,-595.1 398.1,-596.5 	"/>
	
		<linearGradient id="SVGID_3_" gradientUnits="userSpaceOnUse" x1="386.1561" y1="-591.1902" x2="387.6438" y2="-619.1249" gradientTransform="matrix(1 0 0 1 0 -4.003906e-002)">
		<stop  offset="0" style="stop-color:#0071B9"/>
		<stop  offset="1" style="stop-color:#E3FFFF"/>
	</linearGradient>
	<polygon class="st4" points="371.4,-596.5 401.4,-595.1 398.1,-596.5 	"/>
	
		<linearGradient id="SVGID_4_" gradientUnits="userSpaceOnUse" x1="1084" y1="-1111.9601" x2="1084" y2="-1111.9601" gradientTransform="matrix(1 0 0 -1 0 841.83)">
		<stop  offset="0" style="stop-color:#220031"/>
		<stop  offset="0.5419" style="stop-color:#10B4D2"/>
		<stop  offset="1" style="stop-color:#E3FFFF"/>
	</linearGradient>
	<path class="st5" d="M1084,1953.8"/>
</g>
<linearGradient id="SVGID_5_" gradientUnits="userSpaceOnUse" x1="-1617.6166" y1="297.895" x2="-917.5544" y2="297.895" gradientTransform="matrix(-1 0 0 1 -951.5544 -5.999756e-002)">
	<stop  offset="0" style="stop-color:#007AE5"/>
	<stop  offset="1" style="stop-color:#E3FFFF"/>
</linearGradient>
<path class="st6" d="M614,620.8l-648-15.9l17-630c0,0,174.3,13.5,529.2,9s27,83.4-290.5,129.9s-171.2,450,87.2,339
	s317.5,76.5,317.5,76.5"/>
<linearGradient id="SVGID_6_" gradientUnits="userSpaceOnUse" x1="284.3" y1="189.6883" x2="284.3001" y2="852.6791" gradientTransform="matrix(1 0 0 1 0 -5.999756e-002)">
	<stop  offset="0" style="stop-color:#2290CA"/>
	<stop  offset="0.5419" style="stop-color:#10B4D2"/>
	<stop  offset="1" style="stop-color:#E3FFFF"/>
</linearGradient>
<rect x="-32.6" y="-4.3" class="st7" width="633.8" height="847"/>
<linearGradient id="SVGID_7_" gradientUnits="userSpaceOnUse" x1="309.4" y1="146.6277" x2="309.4" y2="753.5071" gradientTransform="matrix(1 0 0 1 0 -5.999756e-002)">
	<stop  offset="0" style="stop-color:#006EB3"/>
	<stop  offset="0.5419" style="stop-color:#10B4D2"/>
	<stop  offset="1" style="stop-color:#E3FFFF"/>
</linearGradient>
<rect x="-21.8" y="-30.9" class="st8" width="662.4" height="775.3"/>
<linearGradient id="SVGID_8_" gradientUnits="userSpaceOnUse" x1="286.9" y1="746.1447" x2="286.9" y2="431.1857" gradientTransform="matrix(-1 0 0 1 573.2 -5.999756e-002)">
	<stop  offset="0" style="stop-color:#22BCCA"/>
	<stop  offset="0.5419" style="stop-color:#10B4D2"/>
	<stop  offset="1" style="stop-color:#E3FFFF"/>
</linearGradient>
<path class="st9" d="M-11,497.2c4.3,27.3,27.9,48.2,56.4,48.2c29.4,0,53.5-22.2,56.7-50.7c15.9,20.5,40.7,33.7,68.7,33.7
	c24.4,0,46.4-10.1,62.2-26.2c5.3,12.5,17.7,21.3,32.1,21.3c10.6,0,20.1-4.7,26.5-12.2c4.6,4.1,10.6,6.6,17.2,6.6
	c10.2,0,19-5.9,23.2-14.5c2.2,1,4.6,1.5,7.1,1.5c2.8,0,5.5-0.6,7.8-1.8c5.7,12.5,18.4,21.2,33.1,21.2c12,0,22.6-5.7,29.2-14.6
	c3.2,1.6,6.7,2.5,10.5,2.5c6.1,0,11.7-2.4,15.9-6.2c5.6,5.8,13.5,9.4,22.2,9.4c1.9,0,3.7-0.2,5.4-0.5c4.8,9.9,14.9,16.7,26.6,16.7
	c5.5,0,10.6-1.5,15-4.1c7.7,7.1,17.9,11.4,29.1,11.4c23.6,0,42.7-19,42.9-42.5c13.9-0.6,25-12,25-26c0-14.4-11.6-26-26-26
	c-9.8,0-18.2,5.4-22.7,13.3c-5.8-2.9-12.3-4.5-19.2-4.5c-15.4,0-28.9,8.2-36.5,20.4c-2.4-0.7-5-1-7.6-1c-1.2,0-2.4,0.1-3.6,0.2
	c-3.9-9.2-12.1-16.1-22.1-18.2c0.1-1.3,0.2-2.6,0.2-3.9c0-20.5-16.6-37.2-37.2-37.2c-20.5,0-37.2,16.6-37.2,37.2
	c0,0.7,0.1,1.4,0.1,2.1c-3.1-0.8-6.4-1.3-9.8-1.3c-14.4,0-26.9,8.4-32.8,20.6c-2.5-1.3-5.2-2-8.1-2c-4.4,0-8.4,1.6-11.4,4.2
	c-4.8-5.1-11.5-8.3-19-8.3c-5.3,0-10.1,1.5-14.2,4.2c-6.1-9.9-17.1-16.4-29.5-16.4c-0.1,0-0.3,0-0.5,0c0-1,0.1-2.1,0.1-3.1
	c0-21.3-17.2-38.5-38.5-38.5c-12.1,0-22.9,5.6-30,14.4c-4.1-3.8-9.1-6.6-14.6-8.1c0.1-0.9,0.1-1.9,0.1-2.8
	c0-36.7-29.8-66.5-66.5-66.5c-35.5,0-64.6,27.9-66.4,63h-0.1c-12.9,0-23.4,10.1-24,22.8c-4.8,1.9-9.3,4.4-13.4,7.4
	c-3.4-1.4-7.2-2.2-11.1-2.2c-16.3,0-29.5,13.2-29.5,29.5C-29.2,482-21.6,492.5-11,497.2z"/>
<linearGradient id="SVGID_9_" gradientUnits="userSpaceOnUse" x1="294.2" y1="771.9529" x2="294.2" y2="455.4966" gradientTransform="matrix(1 0 0 1 0 -5.999756e-002)">
	<stop  offset="0" style="stop-color:#22BCCA"/>
	<stop  offset="0.5419" style="stop-color:#10B4D2"/>
	<stop  offset="1" style="stop-color:#E3FFFF"/>
</linearGradient>
<path class="st10" d="M611.2,494.2c0-16.4-13.3-29.6-29.6-29.6c-3.9,0-7.7,0.8-11.2,2.2c-4.1-3-8.6-5.5-13.5-7.4
	c-0.6-12.8-11.2-22.9-24.1-22.9h-0.1c-1.8-35.3-31-63.3-66.7-63.3c-36.9,0-66.8,29.9-66.8,66.8c0,0.9,0,1.9,0.1,2.8
	c-5.5,1.5-10.5,4.3-14.7,8.1c-7.1-8.8-18-14.5-30.1-14.5c-21.4,0-38.7,17.3-38.7,38.7c0,1,0.1,2.1,0.1,3.1c-0.2,0-0.4,0-0.5,0
	c-12.5,0-23.5,6.5-29.6,16.5c-4.1-2.7-8.9-4.2-14.3-4.2c-7.5,0-14.3,3.2-19.1,8.3c-3-2.6-7-4.2-11.5-4.2c-2.9,0-5.6,0.7-8.1,2
	c-5.9-12.3-18.5-20.7-33-20.7c-3.4,0-6.7,0.5-9.8,1.3c0-0.7,0.1-1.4,0.1-2.1c0-20.7-16.8-37.4-37.4-37.4
	c-20.7,0-37.4,16.8-37.4,37.4c0,1.3,0.1,2.6,0.2,3.9c-10,2.1-18.3,9-22.2,18.3c-1.2-0.1-2.4-0.2-3.6-0.2c-2.6,0-5.2,0.3-7.6,1
	c-7.6-12.3-21.2-20.5-36.7-20.5c-6.9,0-13.5,1.6-19.3,4.5c-4.5-7.9-13-13.4-22.8-13.4c-14.5,0-26.1,11.7-26.1,26.1
	c0,14.1,11.2,25.5,25.1,26.1c0.2,23.6,19.4,42.7,43.1,42.7c11.3,0,21.5-4.3,29.2-11.5c4.4,2.6,9.5,4.1,15.1,4.1
	c11.8,0,21.9-6.8,26.7-16.8c1.7,0.3,3.5,0.5,5.4,0.5c8.7,0,16.7-3.6,22.3-9.4c4.2,3.8,9.8,6.2,16,6.2c3.8,0,7.3-0.9,10.5-2.5
	c6.6,8.9,17.3,14.7,29.3,14.7c14.8,0,27.5-8.7,33.3-21.3c2.3,1.2,5,1.8,7.8,1.8c2.5,0,4.9-0.5,7.1-1.5c4.2,8.6,13.1,14.6,23.3,14.6
	c6.6,0,12.7-2.5,17.3-6.6c6.4,7.5,16,12.3,26.6,12.3c14.5,0,26.9-8.8,32.3-21.4c15.9,16.2,38,26.3,62.5,26.3
	c28.1,0,53.1-13.3,69-33.9c3.2,28.6,27.4,50.9,57,50.9c28.6,0,52.3-21,56.7-48.4C603.5,517.1,611.2,506.5,611.2,494.2z"/>
<linearGradient id="SVGID_10_" gradientUnits="userSpaceOnUse" x1="283.55" y1="875.6505" x2="283.55" y2="529.9961" gradientTransform="matrix(1 0 0 1 0 -5.999756e-002)">
	<stop  offset="0" style="stop-color:#22BCCA"/>
	<stop  offset="0.5419" style="stop-color:#10B4D2"/>
	<stop  offset="1" style="stop-color:#E3FFFF"/>
</linearGradient>
<path class="st11" d="M629.9,572.2c0-17.9-14.5-32.4-32.4-32.4c-4.3,0-8.5,0.9-12.2,2.4c-4.5-3.3-9.4-6-14.7-8.1
	c-0.7-13.9-12.2-25-26.3-25h-0.1c-2-38.5-33.9-69.1-72.9-69.1c-40.3,0-73,32.7-73,73c0,1,0,2.1,0.1,3.1c-6,1.6-11.5,4.7-16,8.9
	c-7.8-9.7-19.6-15.8-32.9-15.8c-23.4,0-42.3,18.9-42.3,42.3c0,1.1,0.1,2.3,0.1,3.4c-0.2,0-0.4,0-0.5,0c-13.6,0-25.7,7.1-32.4,18
	c-4.5-3-9.8-4.6-15.6-4.6c-8.2,0-15.6,3.5-20.9,9.1c-3.3-2.9-7.7-4.6-12.5-4.6c-3.2,0-6.1,0.8-8.9,2.2c-6.5-13.4-20.2-22.6-36-22.6
	c-3.7,0-7.4,0.5-10.8,1.4c0-0.8,0.1-1.5,0.1-2.3c0-22.6-18.3-40.8-40.8-40.8c-22.6,0-40.8,18.3-40.8,40.8c0,1.4,0.1,2.9,0.2,4.3
	c-11,2.3-20,9.9-24.3,20c-1.3-0.1-2.6-0.2-4-0.2c-2.9,0-5.7,0.3-8.3,1.1c-8.3-13.4-23.2-22.4-40.1-22.4c-7.6,0-14.7,1.8-21.1,4.9
	c-4.9-8.7-14.2-14.6-24.9-14.6c-15.8,0-28.5,12.7-28.5,28.5c0,15.4,12.2,27.9,27.4,28.5c0.2,25.8,21.2,46.6,47.1,46.6
	c12.3,0,23.5-4.7,31.9-12.5c4.8,2.9,10.4,4.5,16.5,4.5c12.8,0,23.9-7.5,29.2-18.3c1.9,0.3,3.8,0.5,5.9,0.5c9.5,0,18.2-4,24.4-10.3
	c4.6,4.2,10.8,6.8,17.4,6.8c4.2,0,8-1,11.5-2.7c7.2,9.8,18.9,16,32,16c16.1,0,30.1-9.5,36.3-23.3c2.5,1.3,5.5,2,8.6,2
	c2.7,0,5.4-0.5,7.8-1.6c4.6,9.4,14.3,15.9,25.5,15.9c7.2,0,13.8-2.7,18.9-7.2c7,8.2,17.4,13.4,29.1,13.4c15.8,0,29.4-9.7,35.2-23.4
	c17.3,17.7,41.5,28.8,68.3,28.8c30.7,0,57.9-14.5,75.4-37c3.5,31.3,30,55.6,62.2,55.6c31.3,0,57.2-22.9,61.9-52.9
	C621.5,597.2,629.9,585.7,629.9,572.2z"/>
<linearGradient id="SVGID_11_" gradientUnits="userSpaceOnUse" x1="296.5" y1="11.5357" x2="296.5" y2="177.2584" gradientTransform="matrix(1 0 0 -1 0 841.81)">
	<stop  offset="0" style="stop-color:#22BCCA"/>
	<stop  offset="1" style="stop-color:#01ADD8"/>
</linearGradient>
<rect x="3.4" y="642.6" class="st12" width="586.2" height="212.8"/>
<g>
	<g>
		<path class="st13" d="M437.3,332.3c0,0,7.7,3.8,4.8,9.8c0,0,7.2-8.8,9.4-5.9c0,0-3.2-4.1-6.8,0.1
			C444.6,336.2,439.5,330.9,437.3,332.3z"/>
		<path class="st13" d="M409.7,328.1c-1.6-0.5-4.5-0.8-5.7,2.9c0,0-2.4-1.5-6.7-0.8c0,0,5.4,1.4,7.4,3.8
			C405.3,330.9,406.8,328.5,409.7,328.1z"/>
		<path class="st13" d="M411,313.1c0,0,11.2-0.1,10,13.6c0,0,5.7-14,12.4-12.5c0,0-6.8-2.5-11.2,3.2
			C422.3,317.4,421.4,311.7,411,313.1z"/>
	</g>
	<path class="st13" d="M371,370.9c0,0-8.6,0-8.6,6.7c0,0-2.5-11.1-5.8-9.4c0,0,4.7-2.2,6.1,3.1C362.6,371.2,369.6,368.7,371,370.9z"
		/>
</g>
<path class="st13" d="M481.8,400.8c2.8-0.4,7.7,0,8.7,6.7c0,0,4.4-1.8,11.5,0.6c0,0-9.3,0.6-13.6,4.2
	C488.4,406.9,486.6,402.5,481.8,400.8z"/>
<g>
	<g>
		<path class="st13" d="M136.8,212.8c0,0,7.8,2,6.2,8c0,0,4.8-9.4,7.4-7.2c0,0-3.7-3.1-6.2,1.4C144.3,215,138.6,211.1,136.8,212.8z"
			/>
		<path class="st13" d="M111.1,214.4c-1.5-0.2-4.2,0.2-4.6,3.8c0,0-2.4-0.9-6.2,0.5c0,0,5.1,0.2,7.5,2.1
			C107.7,217.7,108.5,215.3,111.1,214.4z"/>
		<path class="st13" d="M109.4,200.5c0,0,10.2-2.2,11.7,10.5c0,0,2.4-13.8,8.8-13.7c0,0-6.7-0.9-9.6,5
			C120.4,202.2,118.5,197.2,109.4,200.5z"/>
	</g>
	<path class="st13" d="M197.6,197.8c1.5,0.3,4.1,1.2,3.5,4.8c0,0,2.6-0.3,6,2.1c0,0-5-1.1-7.8,0.2
		C200,201.9,199.9,199.3,197.6,197.8z"/>
	<path class="st13" d="M159.8,238.4c1.5-0.4,4.1-0.7,5.3,2.8c0,0,2.2-1.4,6.2-0.8c0,0-5,1.2-6.9,3.5
		C164,241.1,162.6,238.9,159.8,238.4z"/>
	<path class="st13" d="M164.8,190.9c0,0-9.3-4.6-13.9,7.2c0,0,1-13.9-5.1-15.5c0,0,6.7,0.8,8,7.2
		C153.8,189.9,156.8,185.5,164.8,190.9z"/>
	<path class="st13" d="M161.9,269.6c0,0-10.4-0.3-9.6,12.3c0,0-4.9-13.1-11.2-11.8c0,0,6.4-2.1,10.3,3.2
		C151.4,273.3,152.3,268,161.9,269.6z"/>
</g>
<path class="st13" d="M212.2,387.4c0,0-7,5.5-2.8,10.9c0,0-9.1-7.5-10.8-4c0,0,2.5-4.8,7-1.4C205.5,393,209.6,386.5,212.2,387.4z"/>
<path class="st13" d="M42.9,687.8c9.6-7.4,28.8-13.9,39.8-8.2c7.7,4,14.5,12.6,21.6,18.2c7.3,5.8,14.9,11.2,22.7,15.8
	c18.6,11.1,39.1,18.6,60,17.7c14.5-0.6,28.6-5.4,41.2-14.1c26.4-18.2,55.2-36.9,85.7-41.9c27.9-4.6,50.4,13.6,77.8,14.8
	c53.5,2.3,111.8-12.1,163.1,13.1c20.1,9.9,36.1,27.9,40,54.5c16,106.9,19.3-112.4,19.3-112.4l-622-4.6l-4,67.3"/>
<path class="st14" d="M42.8,670.1c8.2-3.3,16.7-6.1,25.3-6.6c11.1-0.7,19.5,4,29.3,9.9c6.9,4.2,13.9,8,21,11.4
	c19.2,9.2,39.5,15.4,60.1,16.3c16.9,0.8,33.9-2.2,49.8-9.9c29.2-14.2,59.9-28,91.3-30.1c10.8-0.7,22.4-0.4,32.9,3.3
	c17.9,6.3,35.9,8,54.5,7.7c36.7-0.5,73.3-3,109.9,1.2c23.6,2.7,58.2,6.7,73.4,34c2.1,3.8,3.7,8,4.7,12.5
	c16,75.6,19.3-79.5,19.3-79.5l-622-3.3l-4,47.5"/>
<path class="st3" d="M15.6,623.4l70.9-28.2l11.4-31.1l71.8-4.9c0,0,13.1,11.4,21.2-3.3s8.1-14.7,8.1-14.7l4.9-6.5
	c0,0,9.8,8.1,14.7,9.8s24.5,1.6,35.9,1.6s68.6,0,68.6,0c8.1,0,1.6-6.5,8.1,0s-4.9-4.9,6.5,6.5s1.6,11.4,11.4,11.4s37.6,0,37.6,0
	l42.5,11.4c88.2,35.9,88.2,35.9,88.2,35.9h24.5l23,10l4.9,19.6H27.7"/>
<linearGradient id="SVGID_12_" gradientUnits="userSpaceOnUse" x1="15.6" y1="587.1801" x2="569.7" y2="587.1801" gradientTransform="matrix(1 0 0 1 0 -4.003906e-002)">
	<stop  offset="0" style="stop-color:#2290CA"/>
	<stop  offset="0.5419" style="stop-color:#10B4D2"/>
	<stop  offset="1" style="stop-color:#E3FFFF"/>
</linearGradient>
<path class="st15" d="M15.6,618l70.8-31.5l11.4-26.9l71.8-4.3c0,0,13.1,9.9,21.2-2.8s8.1-12.7,8.1-12.7l4.9-5.6c0,0,9.8,7,14.7,8.5
	c4.9,1.4,24.5,1.4,35.9,1.4s68.6,0,68.6,0c8.1,0,1.6-5.6,8.1,0s-4.9-4.3,6.5,5.6c11.4,9.9,1.6,9.9,11.4,9.9s37.6,0,37.6,0l42.5,9.9
	c88.2,31.1,88.2,31.1,88.2,31.1h24.5l23,8.6l4.9,16.9l-544.2,14"/>
<path class="st16" d="M476.3,597.8c-31.7-1.2-66.9,7.9-66.9,7.9l-70.9,3.6l-15.6-10.9l-42.7-2.4l-23.1-4.2c0,0-2.9-6.7-4.6-6.7
	S234,596.6,231.2,596c-2.9-0.6-57.1-6.7-57.1-6.7l-17.9-21.2h-2.9c0,0-11-1.2-13.3,1.8S126.2,582,126.2,582L91,605l-15,21.8
	l-50.2,1.8v17l549.7-3.6l-11.2-18.4l-24.5-11.3l-23.2,0.8L476.3,597.8z"/>
<g class="st17">
	
		<linearGradient id="SVGID_13_" gradientUnits="userSpaceOnUse" x1="315.3448" y1="604.2377" x2="316.632" y2="580.0679" gradientTransform="matrix(1 0 0 1 0 -4.003906e-002)">
		<stop  offset="0" style="stop-color:#2290CA"/>
		<stop  offset="0.5419" style="stop-color:#10B4D2"/>
		<stop  offset="1" style="stop-color:#E3FFFF"/>
	</linearGradient>
	<polygon class="st18" points="564.3,621 558.8,618.7 78.1,598 64.7,603.3 565,623.7 	"/>
	
		<linearGradient id="SVGID_14_" gradientUnits="userSpaceOnUse" x1="289.9822" y1="602.8871" x2="291.2693" y2="578.7173" gradientTransform="matrix(1 0 0 1 0 -4.003906e-002)">
		<stop  offset="0" style="stop-color:#0071B9"/>
		<stop  offset="1" style="stop-color:#E3FFFF"/>
	</linearGradient>
	<path class="st19" d="M474.1,593.7c-66.8-4.3-287.2-18.5-378.9-24.4l-2.3,6.1c116.3,7.2,347.6,21.4,395.8,24.2
		C484.6,597.9,479.7,596,474.1,593.7z"/>
	
		<linearGradient id="SVGID_15_" gradientUnits="userSpaceOnUse" x1="289.2721" y1="602.8492" x2="290.5592" y2="578.6794" gradientTransform="matrix(1 0 0 1 0 -4.003906e-002)">
		<stop  offset="0" style="stop-color:#0071B9"/>
		<stop  offset="1" style="stop-color:#E3FFFF"/>
	</linearGradient>
	<path class="st20" d="M447.9,583c-4.4-1.8-9-3.7-13.9-5.7l-246.7-17.5c-8,8-18.1-0.9-18.1-0.9l-34.9,2.4l-0.4,0.2L447.9,583z"/>
	
		<linearGradient id="SVGID_16_" gradientUnits="userSpaceOnUse" x1="301.5901" y1="603.5052" x2="302.8773" y2="579.3354" gradientTransform="matrix(1 0 0 1 0 -4.003906e-002)">
		<stop  offset="0" style="stop-color:#0071B9"/>
		<stop  offset="1" style="stop-color:#E3FFFF"/>
	</linearGradient>
	<path class="st21" d="M274.2,545.8l60.7,4.2c-0.9-0.9-1.6-1.6-2-2c0,0-0.3-0.3-1-1c-0.2-0.2-0.4-0.4-0.6-0.6l-7.7-0.6
		c-0.3,0-0.6,0-1,0C322.6,545.8,294.9,545.8,274.2,545.8z"/>
	
		<linearGradient id="SVGID_17_" gradientUnits="userSpaceOnUse" x1="202.7668" y1="598.2424" x2="204.0538" y2="574.0727" gradientTransform="matrix(1 0 0 1 0 -4.003906e-002)">
		<stop  offset="0" style="stop-color:#0071B9"/>
		<stop  offset="1" style="stop-color:#E3FFFF"/>
	</linearGradient>
	<path class="st22" d="M213.1,541.6c-2.1-1.3-4.3-2.9-6-4.3l-5.6-0.4l-3,4l2.2-0.2L213.1,541.6z"/>
	
		<linearGradient id="SVGID_18_" gradientUnits="userSpaceOnUse" x1="301.896" y1="603.5215" x2="303.1831" y2="579.3517" gradientTransform="matrix(1 0 0 1 0 -4.003906e-002)">
		<stop  offset="0" style="stop-color:#0071B9"/>
		<stop  offset="1" style="stop-color:#E3FFFF"/>
	</linearGradient>
	<path class="st23" d="M509,607.9L89.3,585.4l-1.8,4.8L516.6,611C516.1,610.8,514.5,610.2,509,607.9z"/>
	
		<linearGradient id="SVGID_19_" gradientUnits="userSpaceOnUse" x1="265.6348" y1="601.5903" x2="266.922" y2="577.4208" gradientTransform="matrix(1 0 0 1 0 -4.003906e-002)">
		<stop  offset="0" style="stop-color:#0071B9"/>
		<stop  offset="1" style="stop-color:#E3FFFF"/>
	</linearGradient>
	<path class="st24" d="M341.7,557.6l-147.5-9.1c-0.5,0.9-1,1.9-1.7,3l151,11.3C343.4,562,343.5,560.5,341.7,557.6z"/>
</g>
<g>
	<path class="st25" d="M104.6,631.4c4.6-3.2,7.5-5.6,7.5-5.6s6.3-5.6,8.1-5.6s-9.8-0.8,7.5-5.6s40.4,22.3,40.4,22.3h14.4
		c0,0,15.6-4,25.4,0s36.3,5.6,36.3,5.6h23.6c22.5-2.4,27.7-4,27.7-4l5.2-4l8.7,3.6l-1.7-1.4c0,0-6.1-6.1-20.9-15.9
		c0,0-7.4-2.4-28.2-2.4s-28.2-2.4-31.8-2.4s-26.9,30.6-58.7-19.6c-31.8-50.2-23.3,0-45.3,1.2l-9.8,18.3c0,0-30.6,15.9-47.8,19.6
		l7,11.6l3.6-3.8C75.8,643.4,100,634.6,104.6,631.4z"/>
	<path class="st26" d="M316.3,644.1l-6.9-5.9l-8.7-3.6l-5.2,4c0,0-5.2,1.6-27.7,4h-23.6c0,0-26.5-1.6-36.3-5.6s-25.4,0-25.4,0h-14.4
		c0,0-23.1-27-40.4-22.3s-5.8,5.6-7.5,5.6s-8.1,5.6-8.1,5.6s-2.9,2.4-7.5,5.6c-4.6,3.2-28.8,11.9-28.8,11.9l-3.6,3.8l0.4,0.6
		c0,0,0,0,4.9,0c1.4,0,5,0,10.1,0c2.1-0.4,3.8-0.9,4.9-1.2c5.2-1.6,21.3,0,21.3,0s30,0,42.7,0c6.4,0,11.3,3.2,14.8,6.6l29.9,8.2
		L316.3,644.1z"/>
</g>
<g class="st27">
	
		<linearGradient id="SVGID_20_" gradientUnits="userSpaceOnUse" x1="85.7999" y1="591.23" x2="568.8" y2="591.23" gradientTransform="matrix(1 0 0 1 0 -4.003906e-002)">
		<stop  offset="0" style="stop-color:#220031"/>
		<stop  offset="0.5419" style="stop-color:#10B4D2"/>
		<stop  offset="1" style="stop-color:#E3FFFF"/>
	</linearGradient>
	<path class="st28" d="M139.1,581c2.3-3,13.3-1.8,13.3-1.8h2.9l2,2.4C235.8,567.8,357,558,407.1,615c0.5,0.6,1,1.1,1.4,1.7
		c2.1-0.5,36.1-9,66.8-7.8l40.3,15.3l23.2-0.8l24.5,11.3l1.5,2.5l4-0.1l-4.9-16.9l-23-8.6h-24.5c0,0,0,0-88.2-31.1l-42.5-9.9
		c0,0-27.8,0-37.6,0c-9.8,0,0,0-11.4-9.9c-2.2-1.9-3.6-3.1-4.3-3.8l0,0l0,0l0,0l0,0l0,0c-0.1-0.1-0.2-0.1-0.3-0.3l-0.1-0.1
		c0,0,0,0-0.1-0.1s-0.1-0.1-0.2-0.2l0,0l0,0l-0.1-0.1l0,0c-0.3-0.3-0.7-0.6-1.1-1c-6.5-5.6,0,0-8.1,0c0,0-57.2,0-68.6,0
		s-31,0-35.9-1.4s-14.7-8.5-14.7-8.5l-4.9,5.6c0,0,0,0-8.1,12.7s-21.2,2.8-21.2,2.8l-71.8,4.3l-11.4,26.9c0,0,19.1-5.5,48.4-11.4
		C136.1,584,138.2,582.1,139.1,581z"/>
	
		<linearGradient id="SVGID_21_" gradientUnits="userSpaceOnUse" x1="408.5" y1="624.8721" x2="564.8" y2="624.8721" gradientTransform="matrix(1 0 0 1 0 -4.003906e-002)">
		<stop  offset="0" style="stop-color:#220031"/>
		<stop  offset="0.5419" style="stop-color:#10B4D2"/>
		<stop  offset="1" style="stop-color:#E3FFFF"/>
	</linearGradient>
	<path class="st29" d="M538.8,623.4l-23.2,0.8l-40.3-15.3c-30.7-1.2-64.7,7.3-66.8,7.8c7.8,9.2,11.4,17.2,11.8,24.2l144.5-3.7
		l-1.5-2.5L538.8,623.4z"/>
</g>
<ellipse class="st25" cx="212.3" cy="624" rx="28.7" ry="7.9"/>
<rect x="183.8" y="608.3" class="st25" width="56.8" height="17.2"/>
<rect x="199.1" y="506.9" class="st30" width="25.8" height="7.2"/>
<path class="st31" d="M190.3,608.5c0-1.4,8.8-97,8.8-97L225,511l9.7,96.1"/>
<polyline class="st32" points="197.2,530.9 227,530.5 228.6,548 195.6,548 "/>
<polyline class="st32" points="194.7,558.9 229.7,558.6 231.4,575.9 193.1,576 "/>
<path class="st32" d="M224.9,508.7h-26.3c-1.2,0-2.2-0.9-2.2-2.2l0,0c0-1.2,0.9-2.2,2.2-2.2h26.3c1.2,0,2.2,0.9,2.2,2.2l0,0
	C227.1,507.6,226.1,508.7,224.9,508.7z"/>
<linearGradient id="SVGID_22_" gradientUnits="userSpaceOnUse" x1="202.08" y1="494.53" x2="221.68" y2="494.53" gradientTransform="matrix(1 0 0 1 0 -4.003906e-002)">
	<stop  offset="0" style="stop-color:#22BCCA"/>
	<stop  offset="1" style="stop-color:#01ADD8"/>
</linearGradient>
<rect x="202.1" y="485" class="st33" width="19.6" height="19"/>
<path class="st32" d="M224.9,486.3h-26.3c-1.2,0-2.2-0.9-2.2-2.2l0,0c0-1.2,0.9-2.2,2.2-2.2h26.3c1.2,0,2.2,0.9,2.2,2.2l0,0
	C227.1,485.4,226.1,486.3,224.9,486.3z"/>
<path class="st32" d="M221.1,482.7L221.1,482.7c0-5.3-4.2-9.5-9.4-9.5s-9.4,4.2-9.4,9.4c0,0,0,0,0,0.1H221.1z"/>
<ellipse class="st34" cx="212.3" cy="608.6" rx="28.7" ry="7.9"/>
<ellipse class="st31" cx="212.5" cy="604.9" rx="22.7" ry="5.9"/>
<g class="st35">
	<circle class="st13" cx="208.8" cy="491.5" r="3.3"/>
	<circle class="st13" cx="213.5" cy="499.2" r="1.3"/>
</g>
<linearGradient id="SVGID_23_" gradientUnits="userSpaceOnUse" x1="269.3" y1="761.9254" x2="269.3" y2="884.8254">
	<stop  offset="0" style="stop-color:#2290CA"/>
	<stop  offset="0.5419" style="stop-color:#10B4D2"/>
	<stop  offset="1" style="stop-color:#E3FFFF"/>
</linearGradient>
<path class="st36" d="M565,825.9c-15.1-4.8-22.4-12.8-16.4-25.2c27-55.9-196.5-97.3-269-61.1s-165,25.1-195.5,11.4
	c-30.5-13.6-87,18.8-87,18.8L-26.4,883l145-3.3L565,880V825.9z"/>
<g class="st37">
	<g>
		<path class="st26" d="M240.8,609.7c0.2-0.4,0.3-0.8,0.3-1.2c0-1.9-2.4-3.6-6.4-5l-0.2-0.2l-7.1-70.1l-0.3-2.8l-2-19.5H225v-2.3
			c1.2,0,2.2-1.1,2.2-2.2c0-1.3-1.1-2.2-2.2-2.2h-16.5c-2.9,1.7,0.4,4.2,0.4,4.2c25.1,55.6-6.4,102-6.4,102l-3.5,6.1
			c0,0-2,10,9.8,12.1l-0.1,3.3c1.2,0,2.5,0.1,3.7,0.1c14.1-0.1,25.8-2.9,28.3-6.6h0.1v-0.3c0.2-0.4,0.3-0.8,0.3-1.2
			s-0.1-0.8-0.3-1.2V609.7L240.8,609.7z"/>
		<path class="st26" d="M213,486.4l8.9,0.5v-0.5h3.2c1.2,0,2.2-0.9,2.2-2.2s-1.1-2.2-2.2-2.2h-3.8c-0.4-4.9-4.5-8.7-9.3-8.7
			c-0.4,0-0.7,0-1.1,0.1C224.1,481.5,213,486.4,213,486.4z"/>
	</g>
</g>
<linearGradient id="SVGID_24_" gradientUnits="userSpaceOnUse" x1="291.8593" y1="902.9091" x2="291.8593" y2="738.2611" gradientTransform="matrix(1 0 0 1 0 -5.999756e-002)">
	<stop  offset="0" style="stop-color:#22BCCA"/>
	<stop  offset="0.5419" style="stop-color:#10B4D2"/>
	<stop  offset="1" style="stop-color:#E3FFFF"/>
</linearGradient>
<path class="st38" d="M-22.6,895c0,0-30.7-122.8,270.3-64.4c301,58.4,344.1-79.5,86.1-100.6s-377.9-38.2-348.7-88.5h622.1V894"/>
</svg>
