<?xml version="1.0" encoding="utf-8"?>
<!-- Generator: Adobe Illustrator 19.0.0, SVG Export Plug-In . SVG Version: 6.00 Build 0)  -->
<svg version="1.1" id="Layer_1" xmlns="http://www.w3.org/2000/svg" xmlns:xlink="http://www.w3.org/1999/xlink" x="0px" y="0px"
	 viewBox="0 0 595.3 841.9" style="enable-background:new 0 0 595.3 841.9;" xml:space="preserve">
<style type="text/css">
	.st0{fill:none;}
	.st1{fill:url(#SVGID_1_);}
	.st2{fill:url(#SVGID_2_);}
	.st3{fill:#0F253C;}
	.st4{fill:url(#SVGID_3_);}
	.st5{opacity:0.2;fill:url(#SVGID_4_);enable-background:new    ;}
	.st6{fill:url(#SVGID_5_);}
	.st7{fill:url(#SVGID_6_);}
	.st8{fill:url(#SVGID_7_);}
	.st9{fill:url(#SVGID_8_);}
	.st10{fill:url(#SVGID_9_);}
	.st11{fill:#FDFDF1;}
	.st12{fill:#F4CB97;}
	.st13{fill:url(#SVGID_10_);fill-opacity:0.21;}
	.st14{fill:#151C2D;}
	.st15{opacity:7.000000e-002;}
	.st16{fill:url(#SVGID_11_);}
	.st17{fill:url(#SVGID_12_);}
	.st18{fill:url(#SVGID_13_);}
	.st19{fill:url(#SVGID_14_);}
	.st20{fill:url(#SVGID_15_);}
	.st21{fill:url(#SVGID_16_);}
	.st22{fill:url(#SVGID_17_);}
	.st23{fill:#463950;}
	.st24{fill:#2B293C;}
	.st25{opacity:0.38;}
	.st26{fill:url(#SVGID_18_);}
	.st27{fill:url(#SVGID_19_);}
	.st28{fill:#CCBFAF;}
	.st29{fill:#FFFFFF;}
	.st30{fill:#E72F24;}
	.st31{fill:url(#SVGID_20_);}
	.st32{fill:#352A3E;}
	.st33{fill:url(#SVGID_21_);}
	.st34{opacity:0.47;}
	.st35{opacity:8.000000e-002;}
	.st36{opacity:7.000000e-002;fill:#151C2D;enable-background:new    ;}
	.st37{fill:url(#SVGID_22_);}
	.st38{fill:url(#SVGID_23_);}
	.st39{fill:url(#SVGID_24_);}
	.st40{fill:url(#SVGID_25_);}
	.st41{fill:url(#SVGID_26_);}
</style>
<g id="Layer_3">
</g>
<polygon class="st0" points="418.3,-587.8 428,-587.3 426.1,-593.9 401.4,-595.1 "/>
<path class="st0" d="M369.8-596.5h1.7l-1.9-0.1C369.8-596.5,369.8-596.5,369.8-596.5z"/>
<linearGradient id="SVGID_1_" gradientUnits="userSpaceOnUse" x1="429.465" y1="1430.7638" x2="430.9526" y2="1458.6985" gradientTransform="matrix(1 0 0 -1 0 841.85)">
	<stop  offset="0" style="stop-color:#0071B9"/>
	<stop  offset="1" style="stop-color:#E3FFFF"/>
</linearGradient>
<polygon class="st1" points="433,-587.1 427.7,-593.8 426.1,-593.9 428,-587.3 "/>
<linearGradient id="SVGID_2_" gradientUnits="userSpaceOnUse" x1="424.2334" y1="1431.0424" x2="425.7212" y2="1458.9769" gradientTransform="matrix(1 0 0 -1 0 841.85)">
	<stop  offset="0" style="stop-color:#0071B9"/>
	<stop  offset="1" style="stop-color:#E3FFFF"/>
</linearGradient>
<polygon class="st2" points="424.7,-585 425.4,-582 429.7,-581.8 428,-587.3 418.3,-587.8 "/>
<polygon class="st3" points="371.4,-596.5 401.4,-595.1 398.1,-596.5 "/>
<linearGradient id="SVGID_3_" gradientUnits="userSpaceOnUse" x1="386.1555" y1="1433.0702" x2="387.6432" y2="1461.0049" gradientTransform="matrix(1 0 0 -1 0 841.85)">
	<stop  offset="0" style="stop-color:#0071B9"/>
	<stop  offset="1" style="stop-color:#E3FFFF"/>
</linearGradient>
<polygon class="st4" points="371.4,-596.5 401.4,-595.1 398.1,-596.5 "/>
<linearGradient id="SVGID_4_" gradientUnits="userSpaceOnUse" x1="-1578.4026" y1="663.29" x2="-835.5544" y2="663.29" gradientTransform="matrix(-1 0 0 -1 -951.5544 841.83)">
	<stop  offset="0" style="stop-color:#007AE5"/>
	<stop  offset="1" style="stop-color:#E3FFFF"/>
</linearGradient>
<path class="st5" d="M611,618.8l-727-19.5l48.3-861c0,0,174.3,13.5,529.2,9c354.9-4.5,74.7,318-242.8,364.5s-171.2,450,87.2,339
	s317.5,76.5,317.5,76.5"/>
<linearGradient id="SVGID_5_" gradientUnits="userSpaceOnUse" x1="306.4" y1="697.2523" x2="306.4" y2="90.3729" gradientTransform="matrix(1 0 0 -1 0 841.83)">
	<stop  offset="0" style="stop-color:#FF59B2"/>
	<stop  offset="0.6404" style="stop-color:#FDD2DD"/>
	<stop  offset="1" style="stop-color:#FAE5EB"/>
</linearGradient>
<rect x="-24.8" y="-32.9" class="st6" width="662.4" height="775.3"/>
<linearGradient id="SVGID_6_" gradientUnits="userSpaceOnUse" x1="289.9" y1="97.7353" x2="289.9" y2="412.6943" gradientTransform="matrix(-1 0 0 -1 573.2 841.83)">
	<stop  offset="0" style="stop-color:#DE00C3"/>
	<stop  offset="0.5419" style="stop-color:#FF0CBC"/>
	<stop  offset="1" style="stop-color:#E3FFFF"/>
</linearGradient>
<path class="st7" d="M-14,495.2c4.3,27.3,27.9,48.2,56.4,48.2c29.4,0,53.5-22.2,56.7-50.7c15.9,20.5,40.7,33.7,68.7,33.7
	c24.4,0,46.4-10.1,62.2-26.2c5.3,12.5,17.7,21.3,32.1,21.3c10.6,0,20.1-4.7,26.5-12.2c4.6,4.1,10.6,6.6,17.2,6.6
	c10.2,0,19-5.9,23.2-14.5c2.2,1,4.6,1.5,7.1,1.5c2.8,0,5.5-0.6,7.8-1.8c5.7,12.5,18.4,21.2,33.1,21.2c12,0,22.6-5.7,29.2-14.6
	c3.2,1.6,6.7,2.5,10.5,2.5c6.1,0,11.7-2.4,15.9-6.2c5.6,5.8,13.5,9.4,22.2,9.4c1.9,0,3.7-0.2,5.4-0.5c4.8,9.9,14.9,16.7,26.6,16.7
	c5.5,0,10.6-1.5,15-4.1c7.7,7.1,17.9,11.4,29.1,11.4c23.6,0,42.7-19,42.9-42.5c13.9-0.6,25-12,25-26c0-14.4-11.6-26-26-26
	c-9.8,0-18.2,5.4-22.7,13.3c-5.8-2.9-12.3-4.5-19.2-4.5c-15.4,0-28.9,8.2-36.5,20.4c-2.4-0.7-5-1-7.6-1c-1.2,0-2.4,0.1-3.6,0.2
	c-3.9-9.2-12.1-16.1-22.1-18.2c0.1-1.3,0.2-2.6,0.2-3.9c0-20.5-16.6-37.2-37.2-37.2c-20.5,0-37.2,16.6-37.2,37.2
	c0,0.7,0.1,1.4,0.1,2.1c-3.1-0.8-6.4-1.3-9.8-1.3c-14.4,0-26.9,8.4-32.8,20.6c-2.5-1.3-5.2-2-8.1-2c-4.4,0-8.4,1.6-11.4,4.2
	c-4.8-5.1-11.5-8.3-19-8.3c-5.3,0-10.1,1.5-14.2,4.2c-6.1-9.9-17.1-16.4-29.5-16.4c-0.1,0-0.3,0-0.5,0c0-1,0.1-2.1,0.1-3.1
	c0-21.3-17.2-38.5-38.5-38.5c-12.1,0-22.9,5.6-30,14.4c-4.1-3.8-9.1-6.6-14.6-8.1c0.1-0.9,0.1-1.9,0.1-2.8
	c0-36.7-29.8-66.5-66.5-66.5c-35.5,0-64.6,27.9-66.4,63h-0.1c-12.9,0-23.4,10.1-24,22.8c-4.8,1.9-9.3,4.4-13.4,7.4
	c-3.4-1.4-7.2-2.2-11.1-2.2c-16.3,0-29.5,13.2-29.5,29.5C-32.2,480-24.6,490.5-14,495.2z"/>
<linearGradient id="SVGID_7_" gradientUnits="userSpaceOnUse" x1="291.2" y1="71.9271" x2="291.2" y2="388.3834" gradientTransform="matrix(1 0 0 -1 0 841.83)">
	<stop  offset="0" style="stop-color:#DE00C3"/>
	<stop  offset="0.5419" style="stop-color:#FF0CBC"/>
	<stop  offset="1" style="stop-color:#E3FFFF"/>
</linearGradient>
<path class="st8" d="M608.2,492.2c0-16.4-13.3-29.6-29.6-29.6c-3.9,0-7.7,0.8-11.2,2.2c-4.1-3-8.6-5.5-13.5-7.4
	c-0.6-12.8-11.2-22.9-24.1-22.9h-0.1c-1.8-35.3-31-63.3-66.7-63.3c-36.9,0-66.8,29.9-66.8,66.8c0,0.9,0,1.9,0.1,2.8
	c-5.5,1.5-10.5,4.3-14.7,8.1c-7.1-8.8-18-14.5-30.1-14.5c-21.4,0-38.7,17.3-38.7,38.7c0,1,0.1,2.1,0.1,3.1c-0.2,0-0.4,0-0.5,0
	c-12.5,0-23.5,6.5-29.6,16.5c-4.1-2.7-8.9-4.2-14.3-4.2c-7.5,0-14.3,3.2-19.1,8.3c-3-2.6-7-4.2-11.5-4.2c-2.9,0-5.6,0.7-8.1,2
	c-5.9-12.3-18.5-20.7-33-20.7c-3.4,0-6.7,0.5-9.8,1.3c0-0.7,0.1-1.4,0.1-2.1c0-20.7-16.8-37.4-37.4-37.4
	c-20.7,0-37.4,16.8-37.4,37.4c0,1.3,0.1,2.6,0.2,3.9c-10,2.1-18.3,9-22.2,18.3c-1.2-0.1-2.4-0.2-3.6-0.2c-2.6,0-5.2,0.3-7.6,1
	c-7.6-12.3-21.2-20.5-36.7-20.5c-6.9,0-13.5,1.6-19.3,4.5c-4.5-7.9-13-13.4-22.8-13.4c-14.5,0-26.1,11.7-26.1,26.1
	c0,14.1,11.2,25.5,25.1,26.1c0.2,23.6,19.4,42.7,43.1,42.7c11.3,0,21.5-4.3,29.2-11.5c4.4,2.6,9.5,4.1,15.1,4.1
	c11.8,0,21.9-6.8,26.7-16.8c1.7,0.3,3.5,0.5,5.4,0.5c8.7,0,16.7-3.6,22.3-9.4c4.2,3.8,9.8,6.2,16,6.2c3.8,0,7.3-0.9,10.5-2.5
	c6.6,8.9,17.3,14.7,29.3,14.7c14.8,0,27.5-8.7,33.3-21.3c2.3,1.2,5,1.8,7.8,1.8c2.5,0,4.9-0.5,7.1-1.5c4.2,8.6,13.1,14.6,23.3,14.6
	c6.6,0,12.7-2.5,17.3-6.6c6.4,7.5,16,12.3,26.6,12.3c14.5,0,26.9-8.8,32.3-21.4c15.9,16.2,38,26.3,62.5,26.3
	c28.1,0,53.1-13.3,69-33.9c3.2,28.6,27.4,50.9,57,50.9c28.6,0,52.3-21,56.7-48.4C600.5,515.1,608.2,504.5,608.2,492.2z"/>
<linearGradient id="SVGID_8_" gradientUnits="userSpaceOnUse" x1="280.55" y1="-31.7705" x2="280.55" y2="313.8839" gradientTransform="matrix(1 0 0 -1 0 841.83)">
	<stop  offset="0" style="stop-color:#DE00C3"/>
	<stop  offset="0.5419" style="stop-color:#FF0CBC"/>
	<stop  offset="1" style="stop-color:#E3FFFF"/>
</linearGradient>
<path class="st9" d="M626.9,570.2c0-17.9-14.5-32.4-32.4-32.4c-4.3,0-8.5,0.9-12.2,2.4c-4.5-3.3-9.4-6-14.7-8.1
	c-0.7-13.9-12.2-25-26.3-25h-0.1c-2-38.5-33.9-69.1-72.9-69.1c-40.3,0-73,32.7-73,73c0,1,0,2.1,0.1,3.1c-6,1.6-11.5,4.7-16,8.9
	c-7.8-9.7-19.6-15.8-32.9-15.8c-23.4,0-42.3,18.9-42.3,42.3c0,1.1,0.1,2.3,0.1,3.4c-0.2,0-0.4,0-0.5,0c-13.6,0-25.7,7.1-32.4,18
	c-4.5-3-9.8-4.6-15.6-4.6c-8.2,0-15.6,3.5-20.9,9.1c-3.3-2.9-7.7-4.6-12.5-4.6c-3.2,0-6.1,0.8-8.9,2.2c-6.5-13.4-20.2-22.6-36-22.6
	c-3.7,0-7.4,0.5-10.8,1.4c0-0.8,0.1-1.5,0.1-2.3c0-22.6-18.3-40.8-40.8-40.8c-22.6,0-40.8,18.3-40.8,40.8c0,1.4,0.1,2.9,0.2,4.3
	c-11,2.3-20,9.9-24.3,20c-1.3-0.1-2.6-0.2-4-0.2c-2.9,0-5.7,0.3-8.3,1.1c-8.3-13.4-23.2-22.4-40.1-22.4c-7.6,0-14.7,1.8-21.1,4.9
	c-4.9-8.7-14.2-14.6-24.9-14.6c-15.8,0-28.5,12.7-28.5,28.5c0,15.4,12.2,27.9,27.4,28.5c0.2,25.8,21.2,46.6,47.1,46.6
	c12.3,0,23.5-4.7,31.9-12.5c4.8,2.9,10.4,4.5,16.5,4.5c12.8,0,23.9-7.5,29.2-18.3c1.9,0.3,3.8,0.5,5.9,0.5c9.5,0,18.2-4,24.4-10.3
	c4.6,4.2,10.8,6.8,17.4,6.8c4.2,0,8-1,11.5-2.7c7.2,9.8,18.9,16,32,16c16.1,0,30.1-9.5,36.3-23.3c2.5,1.3,5.5,2,8.6,2
	c2.7,0,5.4-0.5,7.8-1.6c4.6,9.4,14.3,15.9,25.5,15.9c7.2,0,13.8-2.7,18.9-7.2c7,8.2,17.4,13.4,29.1,13.4c15.8,0,29.4-9.7,35.2-23.4
	c17.3,17.7,41.5,28.8,68.3,28.8c30.7,0,57.9-14.5,75.4-37c3.5,31.3,30,55.6,62.2,55.6c31.3,0,57.2-22.9,61.9-52.9
	C618.5,595.2,626.9,583.7,626.9,570.2z"/>
<linearGradient id="SVGID_9_" gradientUnits="userSpaceOnUse" x1="0.4" y1="819.4899" x2="586.6" y2="819.4899">
	<stop  offset="0" style="stop-color:#FF59B2"/>
	<stop  offset="0.6404" style="stop-color:#FDD2DD"/>
	<stop  offset="1" style="stop-color:#FAE5EB"/>
</linearGradient>
<rect x="0.4" y="640.6" class="st10" width="586.2" height="357.8"/>
<g>
	<g>
		<path class="st11" d="M434.3,330.3c0,0,7.7,3.8,4.8,9.8c0,0,7.2-8.8,9.4-5.9c0,0-3.2-4.1-6.8,0.1
			C441.6,334.2,436.5,328.9,434.3,330.3z"/>
		<path class="st11" d="M406.7,326.1c-1.6-0.5-4.5-0.8-5.7,2.9c0,0-2.4-1.5-6.7-0.8c0,0,5.4,1.4,7.4,3.8
			C402.3,328.9,403.8,326.5,406.7,326.1z"/>
		<path class="st11" d="M408,311.1c0,0,11.2-0.1,10,13.6c0,0,5.7-14,12.4-12.5c0,0-6.8-2.5-11.2,3.2
			C419.3,315.4,418.4,309.7,408,311.1z"/>
	</g>
	<path class="st11" d="M368,368.9c0,0-8.6,0-8.6,6.7c0,0-2.5-11.1-5.8-9.4c0,0,4.7-2.2,6.1,3.1C359.6,369.2,366.6,366.7,368,368.9z"
		/>
</g>
<path class="st11" d="M478.8,398.8c2.8-0.4,7.7,0,8.7,6.7c0,0,4.4-1.8,11.5,0.6c0,0-9.3,0.6-13.6,4.2
	C485.4,404.9,483.6,400.5,478.8,398.8z"/>
<g>
	<g>
		<path class="st11" d="M133.8,210.8c0,0,7.8,2,6.2,8c0,0,4.8-9.4,7.4-7.2c0,0-3.7-3.1-6.2,1.4C141.3,213,135.6,209.1,133.8,210.8z"
			/>
		<path class="st11" d="M108.1,212.4c-1.5-0.2-4.2,0.2-4.6,3.8c0,0-2.4-0.9-6.2,0.5c0,0,5.1,0.2,7.5,2.1
			C104.7,215.7,105.5,213.3,108.1,212.4z"/>
		<path class="st11" d="M106.4,198.5c0,0,10.2-2.2,11.7,10.5c0,0,2.4-13.8,8.8-13.7c0,0-6.7-0.9-9.6,5
			C117.4,200.2,115.5,195.2,106.4,198.5z"/>
	</g>
	<path class="st11" d="M194.6,195.8c1.5,0.3,4.1,1.2,3.5,4.8c0,0,2.6-0.3,6,2.1c0,0-5-1.1-7.8,0.2
		C197,199.9,196.9,197.3,194.6,195.8z"/>
	<path class="st11" d="M156.8,236.4c1.5-0.4,4.1-0.7,5.3,2.8c0,0,2.2-1.4,6.2-0.8c0,0-5,1.2-6.9,3.5
		C161,239.1,159.6,236.9,156.8,236.4z"/>
	<path class="st11" d="M161.8,188.9c0,0-9.3-4.6-13.9,7.2c0,0,1-13.9-5.1-15.5c0,0,6.7,0.8,8,7.2
		C150.8,187.9,153.8,183.5,161.8,188.9z"/>
	<path class="st11" d="M158.9,267.6c0,0-10.4-0.3-9.6,12.3c0,0-4.9-13.1-11.2-11.8c0,0,6.4-2.1,10.3,3.2
		C148.4,271.3,149.3,266,158.9,267.6z"/>
</g>
<path class="st11" d="M209.2,385.4c0,0-7,5.5-2.8,10.9c0,0-9.1-7.5-10.8-4c0,0,2.5-4.8,7-1.4C202.5,391,206.6,384.5,209.2,385.4z"/>
<path class="st11" d="M39.9,685.8c9.6-7.4,28.8-13.9,39.8-8.2c7.7,4,14.5,12.6,21.6,18.2c7.3,5.8,14.9,11.2,22.7,15.8
	c18.6,11.1,39.1,18.6,60,17.7c14.5-0.6,28.6-5.4,41.2-14.1c26.4-18.2,55.2-36.9,85.7-41.9c27.9-4.6,50.4,13.6,77.8,14.8
	c53.5,2.3,111.8-12.1,163.1,13.1c20.1,9.9,36.1,27.9,40,54.5c16,106.9,19.3-112.4,19.3-112.4l-622-4.6l-4,67.3"/>
<path class="st12" d="M39.8,668.1c8.2-3.3,16.7-6.1,25.3-6.6c11.1-0.7,19.5,4,29.3,9.9c6.9,4.2,13.9,8,21,11.4
	c19.2,9.2,39.5,15.4,60.1,16.3c16.9,0.8,33.9-2.2,49.8-9.9c29.2-14.2,59.9-28,91.3-30.1c10.8-0.7,22.4-0.4,32.9,3.3
	c17.9,6.3,35.9,8,54.5,7.7c36.7-0.5,73.3-3,109.9,1.2c23.6,2.7,58.2,6.7,73.4,34c2.1,3.8,3.7,8,4.7,12.5
	c16,75.6,19.3-79.5,19.3-79.5l-622-3.3l-4,47.5"/>
<path class="st3" d="M12.6,621.4l70.9-28.2l11.4-31.1l71.8-4.9c0,0,13.1,11.4,21.2-3.3s8.1-14.7,8.1-14.7l4.9-6.5
	c0,0,9.8,8.1,14.7,9.8s24.5,1.6,35.9,1.6s68.6,0,68.6,0c8.1,0,1.6-6.5,8.1,0s-4.9-4.9,6.5,6.5s1.6,11.4,11.4,11.4s37.6,0,37.6,0
	l42.5,11.4c88.2,35.9,88.2,35.9,88.2,35.9h24.5l23,10l4.9,19.6H24.7"/>
<linearGradient id="SVGID_10_" gradientUnits="userSpaceOnUse" x1="12.6" y1="256.71" x2="566.7" y2="256.71" gradientTransform="matrix(1 0 0 -1 0 841.85)">
	<stop  offset="0" style="stop-color:#2290CA"/>
	<stop  offset="0.5419" style="stop-color:#10B4D2"/>
	<stop  offset="1" style="stop-color:#E3FFFF"/>
</linearGradient>
<path class="st13" d="M12.6,616l70.8-31.5l11.4-26.9l71.8-4.3c0,0,13.1,9.9,21.2-2.8s8.1-12.7,8.1-12.7l4.9-5.6c0,0,9.8,7,14.7,8.5
	c4.9,1.4,24.5,1.4,35.9,1.4s68.6,0,68.6,0c8.1,0,1.6-5.6,8.1,0s-4.9-4.3,6.5,5.6c11.4,9.9,1.6,9.9,11.4,9.9s37.6,0,37.6,0l42.5,9.9
	c88.2,31.1,88.2,31.1,88.2,31.1h24.5l23,8.6l4.9,16.9l-544.2,14"/>
<path class="st14" d="M473.3,595.8c-31.7-1.2-66.9,7.9-66.9,7.9l-70.9,3.6l-15.6-10.9l-42.7-2.4l-23.1-4.2c0,0-2.9-6.7-4.6-6.7
	S231,594.6,228.2,594c-2.9-0.6-57.1-6.7-57.1-6.7l-17.9-21.2h-2.9c0,0-11-1.2-13.3,1.8S123.2,580,123.2,580L88,603l-15,21.8
	l-50.2,1.8v17l549.7-3.6l-11.2-18.4l-24.5-11.3l-23.2,0.8L473.3,595.8z"/>
<g class="st15">
	
		<linearGradient id="SVGID_11_" gradientUnits="userSpaceOnUse" x1="312.3443" y1="239.6423" x2="313.6314" y2="263.8121" gradientTransform="matrix(1 0 0 -1 0 841.85)">
		<stop  offset="0" style="stop-color:#2290CA"/>
		<stop  offset="0.5419" style="stop-color:#10B4D2"/>
		<stop  offset="1" style="stop-color:#E3FFFF"/>
	</linearGradient>
	<polygon class="st16" points="561.3,619 555.8,616.7 75.1,596 61.7,601.3 562,621.7 	"/>
	
		<linearGradient id="SVGID_12_" gradientUnits="userSpaceOnUse" x1="286.9817" y1="240.9929" x2="288.2688" y2="265.1627" gradientTransform="matrix(1 0 0 -1 0 841.85)">
		<stop  offset="0" style="stop-color:#0071B9"/>
		<stop  offset="1" style="stop-color:#E3FFFF"/>
	</linearGradient>
	<path class="st17" d="M471.1,591.7c-66.8-4.3-287.2-18.5-378.9-24.4l-2.3,6.1c116.3,7.2,347.6,21.4,395.8,24.2
		C481.6,595.9,476.7,594,471.1,591.7z"/>
	
		<linearGradient id="SVGID_13_" gradientUnits="userSpaceOnUse" x1="286.2716" y1="241.0308" x2="287.5587" y2="265.2006" gradientTransform="matrix(1 0 0 -1 0 841.85)">
		<stop  offset="0" style="stop-color:#0071B9"/>
		<stop  offset="1" style="stop-color:#E3FFFF"/>
	</linearGradient>
	<path class="st18" d="M444.9,581c-4.4-1.8-9-3.7-13.9-5.7l-246.7-17.5c-8,8-18.1-0.9-18.1-0.9l-34.9,2.4l-0.4,0.2L444.9,581z"/>
	
		<linearGradient id="SVGID_14_" gradientUnits="userSpaceOnUse" x1="298.5895" y1="240.3748" x2="299.8768" y2="264.5446" gradientTransform="matrix(1 0 0 -1 0 841.85)">
		<stop  offset="0" style="stop-color:#0071B9"/>
		<stop  offset="1" style="stop-color:#E3FFFF"/>
	</linearGradient>
	<path class="st19" d="M271.2,543.8l60.7,4.2c-0.9-0.9-1.6-1.6-2-2c0,0-0.3-0.3-1-1c-0.2-0.2-0.4-0.4-0.6-0.6l-7.7-0.6
		c-0.3,0-0.6,0-1,0C319.6,543.8,291.9,543.8,271.2,543.8z"/>
	
		<linearGradient id="SVGID_15_" gradientUnits="userSpaceOnUse" x1="199.7661" y1="245.6376" x2="201.0531" y2="269.8073" gradientTransform="matrix(1 0 0 -1 0 841.85)">
		<stop  offset="0" style="stop-color:#0071B9"/>
		<stop  offset="1" style="stop-color:#E3FFFF"/>
	</linearGradient>
	<path class="st20" d="M210.1,539.6c-2.1-1.3-4.3-2.9-6-4.3l-5.6-0.4l-3,4l2.2-0.2L210.1,539.6z"/>
	
		<linearGradient id="SVGID_16_" gradientUnits="userSpaceOnUse" x1="298.8955" y1="240.3585" x2="300.1826" y2="264.5283" gradientTransform="matrix(1 0 0 -1 0 841.85)">
		<stop  offset="0" style="stop-color:#0071B9"/>
		<stop  offset="1" style="stop-color:#E3FFFF"/>
	</linearGradient>
	<path class="st21" d="M506,605.9L86.3,583.4l-1.8,4.8L513.6,609C513.1,608.8,511.5,608.2,506,605.9z"/>
	
		<linearGradient id="SVGID_17_" gradientUnits="userSpaceOnUse" x1="262.6343" y1="242.2897" x2="263.9215" y2="266.4592" gradientTransform="matrix(1 0 0 -1 0 841.85)">
		<stop  offset="0" style="stop-color:#0071B9"/>
		<stop  offset="1" style="stop-color:#E3FFFF"/>
	</linearGradient>
	<path class="st22" d="M338.7,555.6l-147.5-9.1c-0.5,0.9-1,1.9-1.7,3l151,11.3C340.4,560,340.5,558.5,338.7,555.6z"/>
</g>
<g>
	<path class="st23" d="M101.6,629.4c4.6-3.2,7.5-5.6,7.5-5.6s6.3-5.6,8.1-5.6s-9.8-0.8,7.5-5.6s40.4,22.3,40.4,22.3h14.4
		c0,0,15.6-4,25.4,0s36.3,5.6,36.3,5.6h23.6c22.5-2.4,27.7-4,27.7-4l5.2-4l8.7,3.6l-1.7-1.4c0,0-6.1-6.1-20.9-15.9
		c0,0-7.4-2.4-28.2-2.4s-28.2-2.4-31.8-2.4s-26.9,30.6-58.7-19.6c-31.8-50.2-23.3,0-45.3,1.2l-9.8,18.3c0,0-30.6,15.9-47.8,19.6
		l7,11.6l3.6-3.8C72.8,641.4,97,632.6,101.6,629.4z"/>
	<path class="st24" d="M313.3,642.1l-6.9-5.9l-8.7-3.6l-5.2,4c0,0-5.2,1.6-27.7,4h-23.6c0,0-26.5-1.6-36.3-5.6s-25.4,0-25.4,0h-14.4
		c0,0-23.1-27-40.4-22.3s-5.8,5.6-7.5,5.6s-8.1,5.6-8.1,5.6s-2.9,2.4-7.5,5.6c-4.6,3.2-28.8,11.9-28.8,11.9l-3.6,3.8l0.4,0.6
		c0,0,0,0,4.9,0c1.4,0,5,0,10.1,0c2.1-0.4,3.8-0.9,4.9-1.2c5.2-1.6,21.3,0,21.3,0s30,0,42.7,0c6.4,0,11.3,3.2,14.8,6.6l29.9,8.2
		L313.3,642.1z"/>
</g>
<g class="st25">
	
		<linearGradient id="SVGID_18_" gradientUnits="userSpaceOnUse" x1="82.7999" y1="252.6599" x2="565.8" y2="252.6599" gradientTransform="matrix(1 0 0 -1 0 841.85)">
		<stop  offset="0" style="stop-color:#220031"/>
		<stop  offset="0.5419" style="stop-color:#10B4D2"/>
		<stop  offset="1" style="stop-color:#E3FFFF"/>
	</linearGradient>
	<path class="st26" d="M136.1,579c2.3-3,13.3-1.8,13.3-1.8h2.9l2,2.4C232.8,565.8,354,556,404.1,613c0.5,0.6,1,1.1,1.4,1.7
		c2.1-0.5,36.1-9,66.8-7.8l40.3,15.3l23.2-0.8l24.5,11.3l1.5,2.5l4-0.1l-4.9-16.9l-23-8.6h-24.5c0,0,0,0-88.2-31.1l-42.5-9.9
		c0,0-27.8,0-37.6,0c-9.8,0,0,0-11.4-9.9c-2.2-1.9-3.6-3.1-4.3-3.8l0,0l0,0l0,0l0,0l0,0c-0.1-0.1-0.2-0.1-0.3-0.3l-0.1-0.1
		c0,0,0,0-0.1-0.1s-0.1-0.1-0.2-0.2l0,0l0,0l-0.1-0.1l0,0c-0.3-0.3-0.7-0.6-1.1-1c-6.5-5.6,0,0-8.1,0c0,0-57.2,0-68.6,0
		c-11.4,0-31,0-35.9-1.4s-14.7-8.5-14.7-8.5l-4.9,5.6c0,0,0,0-8.1,12.7s-21.2,2.8-21.2,2.8l-71.8,4.3l-11.4,26.9
		c0,0,19.1-5.5,48.4-11.4C133.1,582,135.2,580.1,136.1,579z"/>
	
		<linearGradient id="SVGID_19_" gradientUnits="userSpaceOnUse" x1="405.5" y1="219.0179" x2="561.8" y2="219.0179" gradientTransform="matrix(1 0 0 -1 0 841.85)">
		<stop  offset="0" style="stop-color:#220031"/>
		<stop  offset="0.5419" style="stop-color:#10B4D2"/>
		<stop  offset="1" style="stop-color:#E3FFFF"/>
	</linearGradient>
	<path class="st27" d="M535.8,621.4l-23.2,0.8l-40.3-15.3c-30.7-1.2-64.7,7.3-66.8,7.8c7.8,9.2,11.4,17.2,11.8,24.2l144.5-3.7
		l-1.5-2.5L535.8,621.4z"/>
</g>
<ellipse class="st23" cx="209.3" cy="622" rx="28.7" ry="7.9"/>
<rect x="180.8" y="606.3" class="st23" width="56.8" height="17.2"/>
<rect x="196.1" y="504.9" class="st28" width="25.8" height="7.2"/>
<path class="st29" d="M187.3,606.5c0-1.4,8.8-97,8.8-97L222,509l9.7,96.1"/>
<polyline class="st30" points="194.2,528.9 224,528.5 225.6,546 192.6,546 "/>
<polyline class="st30" points="191.7,556.9 226.7,556.6 228.4,573.9 190.1,574 "/>
<path class="st30" d="M221.9,506.7h-26.3c-1.2,0-2.2-0.9-2.2-2.2l0,0c0-1.2,0.9-2.2,2.2-2.2h26.3c1.2,0,2.2,0.9,2.2,2.2l0,0
	C224.1,505.6,223.1,506.7,221.9,506.7z"/>
<linearGradient id="SVGID_20_" gradientUnits="userSpaceOnUse" x1="199.08" y1="349.36" x2="218.68" y2="349.36" gradientTransform="matrix(1 0 0 -1 0 841.85)">
	<stop  offset="0" style="stop-color:#FF59B2"/>
	<stop  offset="0.6404" style="stop-color:#FDD2DD"/>
	<stop  offset="1" style="stop-color:#FAE5EB"/>
</linearGradient>
<rect x="199.1" y="483" class="st31" width="19.6" height="19"/>
<path class="st30" d="M221.9,484.3h-26.3c-1.2,0-2.2-0.9-2.2-2.2l0,0c0-1.2,0.9-2.2,2.2-2.2h26.3c1.2,0,2.2,0.9,2.2,2.2l0,0
	C224.1,483.4,223.1,484.3,221.9,484.3z"/>
<path class="st30" d="M218.1,480.7L218.1,480.7c0-5.3-4.2-9.5-9.4-9.5s-9.4,4.2-9.4,9.4c0,0,0,0,0,0.1H218.1z"/>
<ellipse class="st32" cx="209.3" cy="606.6" rx="28.7" ry="7.9"/>
<ellipse class="st29" cx="209.5" cy="602.9" rx="22.7" ry="5.9"/>
<linearGradient id="SVGID_21_" gradientUnits="userSpaceOnUse" x1="365.5999" y1="51.9237" x2="365.6" y2="-173.5169" gradientTransform="matrix(1 0 0 -1 0 841.85)">
	<stop  offset="0" style="stop-color:#FF59B2"/>
	<stop  offset="0.6404" style="stop-color:#FDD2DD"/>
	<stop  offset="1" style="stop-color:#FAE5EB"/>
</linearGradient>
<path class="st33" d="M-5.9,804.5c0,0,56.5-59.5,87-34.5s123,45.5,195.5-21s296,9.5,269,112s215,38.5,215,38.5l-120,107l-525-0.5
	l-145,6"/>
<g class="st34">
	<circle class="st11" cx="205.8" cy="489.5" r="3.3"/>
	<circle class="st11" cx="210.5" cy="497.2" r="1.3"/>
</g>
<g class="st35">
	<g>
		<path class="st24" d="M237.8,607.7c0.2-0.4,0.3-0.8,0.3-1.2c0-1.9-2.4-3.6-6.4-5l-0.2-0.2l-7.1-70.1l-0.3-2.8l-2-19.5H222v-2.3
			c1.2,0,2.2-1.1,2.2-2.2c0-1.3-1.1-2.2-2.2-2.2h-16.5c-2.9,1.7,0.4,4.2,0.4,4.2c25.1,55.6-6.4,102-6.4,102l-3.5,6.1
			c0,0-2,10,9.8,12.1l-0.1,3.3c1.2,0,2.5,0.1,3.7,0.1c14.1-0.1,25.8-2.9,28.3-6.6h0.1v-0.3c0.2-0.4,0.3-0.8,0.3-1.2
			s-0.1-0.8-0.3-1.2V607.7L237.8,607.7z"/>
		<path class="st24" d="M210,484.4l8.9,0.5v-0.5h3.2c1.2,0,2.2-0.9,2.2-2.2s-1.1-2.2-2.2-2.2h-3.8c-0.4-4.9-4.5-8.7-9.3-8.7
			c-0.4,0-0.7,0-1.1,0.1C221.1,479.5,210,484.4,210,484.4z"/>
	</g>
</g>
<path class="st36" d="M-25.6,910c0,0-30.7-122.8,270.3-64.4c301,58.4,344.1-79.5,86.1-100.6s-377.9-38.2-348.7-88.5h622.1V909"/>
<polygon class="st0" points="-268.5,552 -258.8,552.5 -260.7,545.9 -285.4,544.7 "/>
<path class="st0" d="M-317,543.3h1.7l-1.9-0.1C-317,543.3-317,543.3-317,543.3z"/>
<linearGradient id="SVGID_22_" gradientUnits="userSpaceOnUse" x1="-257.338" y1="290.9085" x2="-255.8504" y2="318.8433" gradientTransform="matrix(1 0 0 -1 0 841.85)">
	<stop  offset="0" style="stop-color:#0071B9"/>
	<stop  offset="1" style="stop-color:#E3FFFF"/>
</linearGradient>
<polygon class="st37" points="-253.8,552.7 -259.1,546 -260.7,545.9 -258.8,552.5 "/>
<linearGradient id="SVGID_23_" gradientUnits="userSpaceOnUse" x1="-262.5695" y1="291.1871" x2="-261.0819" y2="319.1218" gradientTransform="matrix(1 0 0 -1 0 841.85)">
	<stop  offset="0" style="stop-color:#0071B9"/>
	<stop  offset="1" style="stop-color:#E3FFFF"/>
</linearGradient>
<polygon class="st38" points="-262.1,554.8 -261.4,557.8 -257.1,558 -258.8,552.5 -268.5,552 "/>
<polygon class="st3" points="-315.4,543.3 -285.4,544.7 -288.7,543.3 "/>
<linearGradient id="SVGID_24_" gradientUnits="userSpaceOnUse" x1="-300.6474" y1="293.215" x2="-299.1597" y2="321.1497" gradientTransform="matrix(1 0 0 -1 0 841.85)">
	<stop  offset="0" style="stop-color:#0071B9"/>
	<stop  offset="1" style="stop-color:#E3FFFF"/>
</linearGradient>
<polygon class="st39" points="-315.4,543.3 -285.4,544.7 -288.7,543.3 "/>
<linearGradient id="SVGID_25_" gradientUnits="userSpaceOnUse" x1="1084" y1="1953.8301" x2="1084" y2="1953.8301" gradientTransform="matrix(1 0 0 1 0 -4.003906e-002)">
	<stop  offset="0" style="stop-color:#220031"/>
	<stop  offset="0.5419" style="stop-color:#10B4D2"/>
	<stop  offset="1" style="stop-color:#E3FFFF"/>
</linearGradient>
<path class="st40" d="M1084,1953.8"/>
<linearGradient id="SVGID_26_" gradientUnits="userSpaceOnUse" x1="850.8" y1="907.33" x2="850.8" y2="907.33" gradientTransform="matrix(1 0 0 1 0 -4.003906e-002)">
	<stop  offset="0" style="stop-color:#220031"/>
	<stop  offset="0.5419" style="stop-color:#10B4D2"/>
	<stop  offset="1" style="stop-color:#E3FFFF"/>
</linearGradient>
<path class="st41" d="M850.8,907.3"/>
</svg>
